<svg width="48" height="48" viewBox="0 0 48 48" fill="none" xmlns="http://www.w3.org/2000/svg">
<path d="M44.5883 17.3205C45.1875 15.4965 43.7093 13.5015 42.192 13.4288C41.9018 10.5848 38.5403 9.8985 37.425 10.8833C36.7823 9.729 34.1355 8.739 32.5005 11.7188L28.4288 19.1408C27.7995 13.455 24.645 14.718 24.645 14.718C21.5108 12.6353 19.113 15.7905 19.4985 19.08L15.4605 11.7188C14.241 9.45075 11.4855 9.38775 10.536 10.8833C9.22878 9.666 5.52303 10.0995 5.76828 13.4288C4.18503 13.2698 2.56578 15.141 3.37278 17.3205C2.14578 17.5223 0.744784 19.4558 1.98228 21.816C2.02728 21.9008 5.45703 27.906 6.41103 29.9483C6.52053 30.1838 6.63228 30.4365 6.75078 30.7028C7.56303 32.5343 8.67528 35.0438 11.154 36.978C12.2175 37.8098 13.5608 38.25 15.0345 38.25C17.4165 38.25 19.8668 37.1348 21.7575 35.1908C22.6112 34.31 23.3143 33.295 23.8388 32.1863C25.6463 36.1335 29.5973 38.2433 32.868 38.2433C34.3845 38.2433 35.7473 37.8053 36.8085 36.9773C39.2873 35.0423 40.3988 32.532 41.2118 30.699C41.3221 30.4478 41.4346 30.1975 41.5493 29.9483C42.5025 27.906 45.933 21.9008 45.966 21.8393C47.2268 19.5165 46.0448 17.538 44.5883 17.3205ZM15.0345 36.7658C13.9335 36.7658 12.0945 36.3705 11.2665 35.724C8.73453 33.7478 8.31003 31.254 7.48353 29.484C6.49278 27.3615 2.85978 21.3188 2.85978 21.3188C2.20578 20.0895 2.75253 18.1455 4.01403 18.4238L8.50203 25.6508L9.67878 25.9418C9.67878 25.9418 5.61153 19.6238 4.30728 17.199C3.65478 15.987 4.90278 14.3145 6.22203 14.7323L11.5733 23.784L12.75 24.0765L6.82953 14.0813C5.80203 11.901 8.98653 10.4955 9.99003 12.3263L15.0105 21.819L15.9525 22.0538L11.2508 12.3578C10.9635 11.0888 13.2585 10.344 14.3648 12.2175L19.3373 22.1873C16.7175 23.5215 13.8263 27.6345 16.65 31.527C14.8658 27.4605 17.7383 24.0975 19.6148 22.8668C20.8103 22.083 20.3588 20.8583 20.3123 19.2683C20.2388 16.7693 20.9655 15.279 22.3823 15.279C23.5658 15.279 23.8298 17.445 23.1143 21.4343C22.632 24.1215 23.0708 26.5328 22.4295 29.94C21.5963 34.359 18.1628 36.7658 15.0345 36.7658ZM44.6663 21.1065C43.4948 23.1315 41.121 27.174 40.194 29.3243C39.1245 31.803 36.7658 36.75 32.5163 36.75C29.2665 36.75 24.693 34.239 24.2498 30.1095C24.0105 27.882 24.1305 24.561 24.639 21.156C24.8685 19.6133 25.4633 17.0963 24.8333 15.9135C26.4293 15.264 27.3705 16.8383 27.6428 21.4193C27.6638 21.7695 27.6773 22.4625 28.3448 22.8675C30.2625 24.033 33.0938 27.4613 31.3095 31.5278C34.134 27.6353 31.0868 22.8533 28.4678 21.5183L33.5198 12.249C34.6755 10.2353 36.9803 11.103 36.8055 12.2378L31.6973 21.9413L32.7728 21.3878C32.7728 21.3878 36.3675 14.5515 37.6763 12.225C38.5868 10.6088 41.6805 12.237 40.6125 14.1728C39.1905 16.7505 35.364 24.1463 35.364 24.1463L36.3855 23.7833L41.6108 14.487C42.6225 14.4293 43.8375 15.8745 43.0823 17.187C41.8365 19.35 38.2808 25.941 38.2808 25.941L39.3338 25.5405L44.0978 17.967C45.1028 18.0945 45.4935 19.6748 44.6663 21.1065Z" fill="#4CAF4F"/>
</svg>
